<svg width="44" height="32" viewBox="0 0 44 32" fill="none" xmlns="http://www.w3.org/2000/svg">
<path d="M26.4893 18.21H30.6893H34.8893" stroke="#252525" stroke-linecap="round" stroke-linejoin="round"/>
<path d="M9.68896 18.2097H13.889M13.889 18.2097H18.089M13.889 18.2097V13.9072M13.889 18.2097V22.5122" stroke="#252525" stroke-linecap="round" stroke-linejoin="round"/>
<path d="M9.68906 5.3025H2.54906C1.85319 5.3025 1.28906 5.88039 1.28906 6.59325V29.8268C1.28906 30.5397 1.85319 31.1175 2.54906 31.1175H42.0291C42.725 31.1175 43.2891 30.5397 43.2891 29.8268V6.59325C43.2891 5.88039 42.725 5.3025 42.0291 5.3025H34.8891M9.68906 5.3025V1H13.8891V5.3025M9.68906 5.3025H13.8891M34.8891 5.3025V1H30.6891V5.3025M34.8891 5.3025H30.6891M13.8891 5.3025H30.6891" stroke="#252525" stroke-linecap="round" stroke-linejoin="round"/>
</svg>
