<svg width="28" height="34" viewBox="0 0 28 34" fill="none" xmlns="http://www.w3.org/2000/svg">
<path d="M15.3678 11.1119H1V4.19996C1 2.43998 2.43998 1 4.19996 1H23.3997C25.1597 1 26.5997 2.43998 26.5997 4.19996V11.1119H21.6878" stroke="#292D32" stroke-linecap="round" stroke-linejoin="round"/>
<path d="M1 16.8083C1 18.5363 1.92804 20.1362 3.44802 20.9842L8.1839 23.656C9.19189 24.216 9.81592 25.2882 9.81592 26.4402V29.8001C9.81592 31.5601 11.2559 33.0001 13.0159 33.0001H14.6158C16.3758 33.0001 17.8158 31.5601 17.8158 29.8001V26.4402C17.8158 25.2882 18.4398 24.216 19.4478 23.656L24.1837 20.9842C25.6877 20.1362 26.6317 18.5363 26.6317 16.8083V11.1123" stroke="#292D32" stroke-linecap="round" stroke-linejoin="round"/>
</svg>
