<svg width="25" height="26" viewBox="0 0 25 26" fill="none" xmlns="http://www.w3.org/2000/svg">
<path d="M20 20.4881C20.663 20.4881 21.2989 20.7579 21.7678 21.2382C22.2366 21.7185 22.5 22.3699 22.5 23.0491C22.5 23.7283 22.2366 24.3797 21.7678 24.86C21.2989 25.3403 20.663 25.6101 20 25.6101C19.337 25.6101 18.7011 25.3403 18.2322 24.86C17.7634 24.3797 17.5 23.7283 17.5 23.0491C17.5 21.6278 18.6125 20.4881 20 20.4881ZM0 0H4.0875L5.2625 2.56101H23.75C24.0815 2.56101 24.3995 2.69592 24.6339 2.93607C24.8683 3.17621 25 3.50191 25 3.84152C25 4.05921 24.9375 4.27689 24.85 4.48177L20.375 12.7667C19.95 13.5478 19.125 14.0856 18.1875 14.0856H8.875L7.75 16.1728L7.7125 16.3265C7.7125 16.4114 7.74542 16.4928 7.80403 16.5528C7.86263 16.6129 7.94212 16.6466 8.025 16.6466H22.5V19.2076H7.5C6.83696 19.2076 6.20107 18.9378 5.73223 18.4575C5.26339 17.9772 5 17.3258 5 16.6466C5 16.1984 5.1125 15.7758 5.3 15.4173L7 12.2801L2.5 2.56101H0V0ZM7.5 20.4881C8.16304 20.4881 8.79893 20.7579 9.26777 21.2382C9.73661 21.7185 10 22.3699 10 23.0491C10 23.7283 9.73661 24.3797 9.26777 24.86C8.79893 25.3403 8.16304 25.6101 7.5 25.6101C6.83696 25.6101 6.20107 25.3403 5.73223 24.86C5.26339 24.3797 5 23.7283 5 23.0491C5 21.6278 6.1125 20.4881 7.5 20.4881ZM18.75 11.5246L22.225 5.12203H6.425L9.375 11.5246H18.75Z" fill="#252525"/>
</svg>
