<svg width="35" height="38" viewBox="0 0 35 38" fill="none" xmlns="http://www.w3.org/2000/svg">
<path d="M14.2052 11.3789H6.28147C4.88074 11.3789 3.53737 11.9439 2.54691 12.9496C1.55644 13.9553 1 15.3194 1 16.7417V31.4916C1 32.9139 1.55644 34.278 2.54691 35.2837C3.53737 36.2894 4.88074 36.8544 6.28147 36.8544H14.2052C14.899 36.8546 15.5859 36.716 16.2269 36.4466C16.8678 36.1772 17.4502 35.7822 17.9408 35.2842C18.4314 34.7862 18.8206 34.195 19.0861 33.5442C19.3516 32.8935 19.4883 32.196 19.4883 31.4916V16.7417C19.4883 16.0373 19.3516 15.3398 19.0861 14.6891C18.8206 14.0383 18.4314 13.4471 17.9408 12.9491C17.4502 12.4511 16.8678 12.0561 16.2269 11.7867C15.5859 11.5173 14.899 11.3787 14.2052 11.3789Z" stroke="#252525" stroke-linecap="round" stroke-linejoin="round"/>
<path d="M24.523 23.0369C25.5336 23.3983 26.6355 23.3986 27.6464 23.0378C28.6573 22.6771 29.5167 21.9768 30.0825 21.0528C30.6482 20.1288 30.8865 19.0365 30.7579 17.9563C30.6292 16.8762 30.1414 15.8729 29.375 15.1125C30.4647 13.5433 30.9568 11.6261 30.7601 9.71644C30.5634 7.80682 29.6912 6.03446 28.3054 4.72814C26.9196 3.42182 25.1142 2.67023 23.2241 2.61278C21.334 2.55533 19.4876 3.19593 18.0273 4.41574C17.7073 3.31462 17.0065 2.36787 16.0538 1.74967C15.1011 1.13147 13.9605 0.883404 12.842 1.05112C11.7235 1.21884 10.7022 1.79105 9.96617 2.66248C9.23009 3.53391 8.82869 4.64593 8.83583 5.79396M10.4086 20.932V27.3009M7.27246 24.1164H13.5448M30.7937 35.262C31.2114 35.2715 31.6267 35.1961 32.0153 35.0404C32.4039 34.8847 32.7579 34.6517 33.0566 34.3551C33.3553 34.0586 33.5926 33.7044 33.7546 33.3134C33.9166 32.9224 34.0001 32.5025 34.0001 32.0783C34.0001 31.6541 33.9166 31.2342 33.7546 30.8432C33.5926 30.4523 33.3553 30.0981 33.0566 29.8015C32.7579 29.505 32.4039 29.272 32.0153 29.1162C31.6267 28.9605 31.2114 28.8852 30.7937 28.8947C29.9743 28.9133 29.1947 29.2569 28.6216 29.852C28.0486 30.447 27.7278 31.2461 27.7278 32.0783C27.7278 32.9105 28.0486 33.7097 28.6216 34.3047C29.1947 34.8997 29.9743 35.2433 30.7937 35.262Z" stroke="#252525" stroke-linecap="round" stroke-linejoin="round"/>
</svg>
