<svg width="28" height="37" viewBox="0 0 28 37" fill="none" xmlns="http://www.w3.org/2000/svg">
<path d="M31.8607 23.4136C28.2877 26.9693 23.171 28.062 18.6787 26.6571L10.5094 34.8091C9.91966 35.4161 8.75757 35.7804 7.92502 35.659L4.14388 35.1386C2.89506 34.9652 1.73297 33.7857 1.54217 32.5369L1.02183 28.7558C0.90042 27.9232 1.29935 26.7611 1.87172 26.1714L10.0237 18.0194C8.63616 13.5099 9.71153 8.39318 13.2845 4.83752C18.4012 -0.279172 26.7093 -0.279172 31.8433 4.83752C36.9774 9.9542 36.9774 18.2969 31.8607 23.4136Z" stroke="#292D32" stroke-miterlimit="10" stroke-linecap="round" stroke-linejoin="round"/>
<path d="M9.48584 27.8545L13.4751 31.8438" stroke="#292D32" stroke-miterlimit="10" stroke-linecap="round" stroke-linejoin="round"/>
<path d="M22.6852 16.597C24.122 16.597 25.2869 15.4321 25.2869 13.9953C25.2869 12.5584 24.122 11.3936 22.6852 11.3936C21.2484 11.3936 20.0835 12.5584 20.0835 13.9953C20.0835 15.4321 21.2484 16.597 22.6852 16.597Z" stroke="#292D32" stroke-linecap="round" stroke-linejoin="round"/>
</svg>
