<svg width="37" height="38" viewBox="0 0 37 38" fill="none" xmlns="http://www.w3.org/2000/svg">
<path d="M14.9115 17.5067L2.06577 30.5519C1.7279 30.8947 1.45987 31.3017 1.277 31.7497C1.09413 32.1977 1 32.6779 1 33.1628C1 33.6478 1.09413 34.128 1.277 34.576C1.45987 35.024 1.7279 35.431 2.06577 35.7737C2.74722 36.4655 3.67135 36.8542 4.63492 36.8542C5.5985 36.8542 6.52263 36.4655 7.20408 35.7737L20.0499 22.7248M27.89 23.3983L34.936 30.5538C35.6173 31.2458 36 32.1843 36 33.1628C36 34.1414 35.6173 35.0798 34.936 35.7719C34.2546 36.4637 33.3305 36.8523 32.3669 36.8523C31.4033 36.8523 30.4792 36.4637 29.7977 35.7719L18.5164 24.3172M8.88475 8.82898L5.02738 10.1317L1.17547 3.60904L3.74462 1L10.1693 4.91357L8.88475 8.82898ZM8.88475 8.82898L14.0267 14.0508" stroke="#252525" stroke-linecap="round" stroke-linejoin="round"/>
<path d="M14.9113 17.5071C13.3778 13.5344 13.6776 8.32189 16.839 5.11133C20.0005 1.90076 25.8329 1.19776 29.0434 3.15547L23.5199 8.76473L23.0057 14.505L28.6582 13.9847L34.1817 8.37356C36.1113 11.6358 35.4173 17.5587 32.2558 20.7674C29.0943 23.978 23.9633 24.2824 20.0514 22.7251" stroke="#252525" stroke-linecap="round" stroke-linejoin="round"/>
</svg>
